<svg id="svg" version="1.1" xmlns="http://www.w3.org/2000/svg" width="400"
     height="420" viewBox="0, 0, 400,420">
    <g id="svgg">
        <path id="path0"
              d="M109.998 1.294 C 109.997 2.074,109.515 3.324,108.800 4.400 C 108.142 5.390,107.600 6.470,107.597 6.800 C 107.593 7.130,106.813 9.020,105.865 11.000 C 104.916 12.980,103.675 15.950,103.107 17.600 C 102.130 20.437,101.825 21.654,100.821 26.731 C 100.280 29.468,100.273 44.664,100.811 47.123 C 101.038 48.155,101.416 49.900,101.652 51.000 C 102.535 55.113,104.131 59.029,106.541 63.000 C 107.342 64.320,107.998 65.649,107.999 65.952 C 108.000 66.256,108.630 67.381,109.400 68.453 C 110.170 69.525,110.800 70.581,110.800 70.801 C 110.800 71.020,110.968 71.200,111.173 71.200 C 111.378 71.200,111.650 71.515,111.777 71.900 C 111.904 72.285,112.771 73.436,113.704 74.457 C 123.463 85.139,123.484 84.624,113.200 86.986 C 111.550 87.365,107.590 88.546,104.400 89.611 C 100.189 91.017,97.011 91.780,92.800 92.395 C 89.610 92.861,86.280 93.399,85.400 93.591 C 82.151 94.298,78.540 95.254,76.400 95.972 C 72.235 97.371,67.794 98.408,64.887 98.663 C 63.285 98.803,61.880 99.071,61.764 99.259 C 61.648 99.446,60.978 99.606,60.276 99.614 C 58.776 99.631,55.248 100.407,51.600 101.524 C 40.166 105.024,29.443 108.719,29.267 109.221 C 29.193 109.430,28.870 109.600,28.547 109.600 C 27.691 109.600,23.593 112.291,22.200 113.769 C 21.540 114.469,20.640 115.303,20.200 115.621 C 19.055 116.450,16.665 119.559,15.911 121.200 C 14.184 124.959,13.200 127.343,13.200 127.765 C 13.200 128.021,12.844 128.929,12.409 129.783 C 11.014 132.519,8.034 142.495,7.625 145.800 C 7.407 147.560,7.022 150.505,6.769 152.344 C 5.374 162.496,6.777 180.550,9.772 191.000 C 10.340 192.980,11.058 195.500,11.368 196.600 C 11.678 197.700,12.371 200.850,12.909 203.600 C 14.459 211.529,15.734 215.849,18.396 222.200 C 19.414 224.627,19.540 225.029,19.740 226.480 C 19.852 227.293,20.206 228.553,20.528 229.280 C 20.849 230.006,21.418 231.770,21.792 233.200 C 22.166 234.630,23.294 237.510,24.299 239.600 C 25.304 241.690,26.623 244.750,27.229 246.400 C 28.775 250.608,31.216 256.523,31.603 257.000 C 31.782 257.220,32.048 258.120,32.194 259.000 C 32.341 259.880,32.631 261.052,32.839 261.605 C 33.048 262.157,33.376 263.507,33.568 264.605 C 33.761 265.702,34.578 268.832,35.384 271.561 C 37.919 280.144,37.356 285.866,33.521 290.480 C 31.615 292.773,28.172 297.839,26.755 300.434 C 26.180 301.486,25.460 302.613,25.155 302.938 C 24.850 303.264,23.970 304.457,23.200 305.590 C 22.430 306.724,20.800 308.855,19.577 310.326 C 17.443 312.893,15.895 315.374,13.600 319.903 C 13.013 321.060,12.168 322.410,11.722 322.903 C 11.275 323.396,9.893 325.240,8.650 327.000 C 7.408 328.760,5.959 330.740,5.432 331.400 C 4.904 332.060,3.511 334.400,2.336 336.600 L 0.200 340.600 0.089 366.916 C -0.032 395.553,-0.130 394.122,2.173 397.400 C 2.637 398.060,3.279 399.115,3.600 399.745 C 4.584 401.676,14.387 411.200,15.391 411.200 C 15.521 411.200,16.106 411.515,16.690 411.900 C 19.124 413.506,28.922 417.006,33.600 417.942 C 43.741 419.970,54.662 419.291,64.200 416.040 C 68.841 414.458,70.818 413.715,71.075 413.459 C 71.217 413.316,71.578 413.200,71.878 413.200 C 73.901 413.200,79.627 409.579,83.914 405.588 C 87.367 402.373,88.525 401.746,89.876 402.362 C 90.791 402.779,93.200 405.793,93.200 406.520 C 93.200 408.077,99.142 418.400,100.038 418.400 C 100.237 418.400,100.400 418.760,100.400 419.200 C 100.400 419.997,185.325 420.542,186.116 419.750 C 186.253 419.613,187.678 419.064,189.283 418.531 C 190.887 417.997,193.820 416.953,195.800 416.212 C 197.780 415.470,201.444 414.296,203.942 413.602 C 208.501 412.336,217.469 409.034,218.180 408.360 C 218.389 408.162,218.887 408.000,219.287 408.000 C 220.472 408.000,228.717 405.220,232.600 403.512 C 235.581 402.200,241.395 400.242,245.000 399.334 C 245.440 399.224,246.160 398.988,246.600 398.810 C 247.040 398.633,249.110 397.806,251.200 396.973 C 253.290 396.140,255.180 395.334,255.400 395.182 C 255.620 395.030,258.140 394.156,261.000 393.240 C 263.860 392.324,266.519 391.397,266.909 391.179 C 267.299 390.961,268.649 390.414,269.909 389.964 C 271.169 389.514,272.830 388.811,273.600 388.403 C 274.370 387.995,276.440 387.180,278.200 386.592 C 279.960 386.004,282.679 384.910,284.242 384.161 C 285.805 383.413,287.277 382.800,287.513 382.800 C 287.750 382.800,288.184 382.558,288.480 382.263 C 288.775 381.968,290.273 381.325,291.808 380.834 C 293.344 380.344,294.960 379.793,295.400 379.612 C 295.840 379.430,296.830 379.064,297.600 378.800 C 298.370 378.536,299.360 378.165,299.800 377.978 C 300.240 377.790,301.770 377.159,303.200 376.576 C 304.630 375.993,306.880 375.018,308.200 374.408 C 309.520 373.798,311.320 372.980,312.200 372.589 C 314.343 371.636,320.401 368.662,321.400 368.070 C 321.840 367.810,323.910 366.958,326.000 366.177 C 328.090 365.395,331.600 363.812,333.800 362.657 C 336.000 361.503,338.700 360.231,339.800 359.831 C 342.015 359.024,349.458 355.398,350.400 354.666 C 351.361 353.920,352.752 353.200,353.234 353.200 C 354.087 353.200,361.257 349.509,363.025 348.160 C 364.005 347.412,364.896 346.800,365.005 346.800 C 365.598 346.800,372.905 343.066,374.616 341.889 C 375.719 341.130,377.967 339.792,379.611 338.914 C 385.596 335.720,387.942 334.352,388.415 333.782 C 388.681 333.462,389.084 333.200,389.311 333.200 C 389.539 333.200,390.281 332.791,390.962 332.292 C 391.643 331.792,392.689 331.135,393.287 330.831 C 393.885 330.527,395.640 329.079,397.187 327.612 L 400.000 324.946 400.000 290.198 L 400.000 255.449 397.615 253.151 C 395.453 251.068,391.927 248.247,387.428 245.000 C 386.514 244.340,385.413 243.483,384.983 243.096 C 381.518 239.980,378.253 237.208,376.400 235.808 C 374.567 234.424,369.524 229.833,367.200 227.432 C 366.870 227.091,365.354 225.595,363.832 224.106 C 362.309 222.618,360.599 220.884,360.032 220.253 C 359.464 219.623,358.055 218.102,356.900 216.873 C 353.968 213.753,354.007 212.791,357.200 209.568 C 358.520 208.235,359.600 207.008,359.600 206.841 C 359.600 206.673,360.365 205.979,361.300 205.299 C 362.235 204.619,363.655 203.373,364.455 202.531 C 365.255 201.689,367.325 199.551,369.055 197.781 C 372.077 194.687,372.885 193.704,373.478 192.400 C 373.628 192.070,373.994 191.617,374.292 191.393 C 374.590 191.169,375.051 190.609,375.317 190.147 C 377.138 186.986,377.849 185.558,378.478 183.800 C 378.871 182.700,379.359 181.440,379.563 181.000 C 380.142 179.749,380.800 176.587,380.800 175.056 C 380.800 174.292,380.964 173.607,381.163 173.533 C 382.951 172.877,382.951 127.523,381.163 126.867 C 380.964 126.793,380.800 126.108,380.800 125.344 C 380.800 123.744,380.148 120.745,379.420 119.000 C 379.145 118.340,378.695 117.170,378.421 116.400 C 377.540 113.931,375.169 109.871,373.983 108.800 C 373.861 108.690,373.330 107.970,372.802 107.200 C 372.275 106.430,371.429 105.404,370.922 104.919 C 370.415 104.435,370.000 103.850,370.000 103.619 C 370.000 103.389,369.848 103.200,369.661 103.200 C 369.238 103.200,367.924 102.104,365.600 99.814 C 364.610 98.838,362.339 96.995,360.554 95.720 C 358.768 94.444,355.952 92.320,354.295 91.000 C 351.647 88.891,347.713 86.036,342.249 82.260 C 341.342 81.633,339.880 80.441,339.000 79.611 C 338.120 78.781,335.960 77.141,334.200 75.967 C 332.440 74.793,330.866 73.618,330.702 73.355 C 330.538 73.093,328.612 71.590,326.422 70.016 C 322.440 67.153,317.719 62.795,316.481 60.839 C 316.119 60.267,315.332 59.170,314.731 58.400 C 314.130 57.630,313.135 56.071,312.519 54.935 C 310.934 52.009,310.238 51.144,306.342 47.254 C 302.580 43.497,302.308 43.256,300.221 41.840 C 299.447 41.315,298.045 40.154,297.107 39.262 C 295.307 37.551,290.107 34.023,289.362 34.009 C 289.121 34.004,288.606 33.648,288.217 33.219 C 287.828 32.789,286.315 31.700,284.855 30.798 C 276.378 25.564,269.493 22.845,260.600 21.220 C 257.960 20.737,254.360 20.081,252.600 19.762 C 250.840 19.443,248.860 18.938,248.200 18.640 C 241.554 15.642,239.624 14.800,239.397 14.800 C 239.251 14.800,236.042 13.285,232.266 11.434 C 228.490 9.583,223.960 7.581,222.200 6.986 C 219.431 6.049,216.481 4.789,211.839 2.558 C 211.200 2.251,210.516 2.000,210.319 2.000 C 210.122 2.000,209.205 1.595,208.281 1.100 L 206.600 0.200 158.300 0.094 L 110.000 -0.013 109.998 1.294 M157.542 17.189 C 158.670 17.403,161.440 18.293,163.697 19.167 C 172.857 22.715,179.615 25.556,180.677 26.306 C 182.565 27.640,187.216 29.843,190.852 31.126 C 192.750 31.795,195.900 33.140,197.852 34.114 C 199.803 35.089,202.660 36.374,204.200 36.971 C 208.707 38.719,210.368 39.554,213.383 41.588 C 214.947 42.644,218.651 44.722,221.613 46.206 C 224.576 47.691,228.469 49.872,230.265 51.055 C 236.997 55.487,239.880 56.049,247.380 54.391 C 255.070 52.691,257.101 53.173,264.338 58.416 C 280.981 70.472,283.511 75.781,276.054 83.004 C 272.694 86.259,272.329 87.536,274.500 88.451 C 275.821 89.009,276.788 89.042,284.600 88.797 C 289.947 88.629,291.673 89.197,296.800 92.814 C 302.328 96.714,306.240 99.289,312.600 103.216 C 318.406 106.801,319.896 107.786,326.371 112.322 C 328.037 113.489,331.920 116.126,335.000 118.182 C 350.283 128.386,353.181 134.174,348.317 144.778 C 347.577 146.390,346.898 148.836,346.552 151.129 C 344.972 161.619,343.208 163.642,334.604 164.828 C 330.536 165.389,329.113 165.998,326.797 168.165 C 324.594 170.225,323.154 171.029,320.986 171.410 C 317.467 172.029,314.488 174.711,311.564 179.896 C 308.672 185.021,306.342 186.809,302.574 186.791 C 299.082 186.774,296.342 185.316,288.514 179.308 C 287.147 178.258,283.786 176.166,281.046 174.657 C 275.019 171.339,272.474 169.144,269.292 164.518 C 266.340 160.226,265.482 159.405,259.400 155.048 C 252.891 150.386,252.317 150.213,243.200 150.172 C 239.130 150.153,234.827 149.950,233.637 149.719 C 229.556 148.928,228.696 149.541,225.661 155.400 C 224.750 157.160,222.638 160.400,220.967 162.600 C 218.596 165.722,216.670 169.101,212.189 178.000 C 204.085 194.094,197.298 204.600,188.286 215.000 C 185.778 217.894,183.919 220.319,174.642 232.800 C 173.089 234.890,169.821 239.030,167.381 242.000 C 160.230 250.703,157.166 254.656,153.013 260.540 C 147.675 268.101,140.705 274.938,135.213 278.000 C 131.131 280.276,129.646 281.812,127.866 285.600 C 125.756 290.091,123.967 292.967,120.008 298.235 C 118.204 300.636,115.458 304.310,113.906 306.400 C 112.354 308.490,110.075 311.543,108.842 313.185 C 107.609 314.826,103.881 318.876,100.558 322.185 C 96.448 326.277,93.219 329.958,90.461 333.698 C 87.140 338.200,85.749 339.714,82.782 342.058 C 79.858 344.367,78.626 345.699,76.396 348.960 C 74.220 352.143,72.464 354.061,68.120 358.000 C 61.907 363.633,59.168 366.357,57.662 368.400 C 50.717 377.822,45.072 380.031,37.500 376.289 C 27.940 371.563,27.013 362.599,34.917 351.294 C 36.106 349.592,37.774 346.940,38.623 345.400 C 40.033 342.842,45.725 334.335,51.938 325.500 C 53.292 323.575,55.504 320.425,56.853 318.500 C 58.203 316.575,60.515 313.380,61.992 311.400 C 71.799 298.253,78.882 287.417,82.874 279.452 C 84.210 276.787,86.057 273.706,86.980 272.604 C 90.000 268.995,96.198 260.701,99.778 255.479 C 101.708 252.662,104.173 249.332,105.255 248.079 C 112.284 239.934,115.577 235.604,123.204 224.479 C 126.225 220.073,130.882 213.827,133.504 210.662 C 134.387 209.596,136.038 207.166,137.173 205.262 C 138.308 203.358,141.491 198.740,144.246 195.000 C 147.002 191.260,151.391 185.140,154.000 181.400 C 156.610 177.660,160.395 172.800,162.413 170.600 C 164.431 168.400,167.189 165.095,168.541 163.257 C 174.503 155.149,184.656 142.273,188.108 138.438 C 191.053 135.167,193.067 131.992,195.608 126.616 C 196.897 123.888,198.558 121.048,199.376 120.170 C 203.253 116.012,202.737 113.998,196.408 108.585 C 194.451 106.912,191.577 103.947,190.020 101.997 C 188.463 100.048,184.356 95.791,180.894 92.538 C 177.433 89.285,172.530 84.462,170.000 81.820 C 164.143 75.704,157.789 69.576,154.175 66.559 C 130.817 47.060,126.963 40.205,132.810 28.565 C 137.611 19.007,146.228 15.043,157.542 17.189 M188.711 108.058 C 193.024 110.134,195.318 117.263,192.808 120.789 C 192.369 121.405,190.523 123.093,188.705 124.541 C 186.887 125.988,184.107 128.664,182.526 130.486 C 178.799 134.783,170.225 143.154,166.394 146.237 C 163.356 148.682,162.821 149.450,160.643 154.491 C 158.499 159.451,151.090 165.932,145.386 167.836 C 138.683 170.074,137.713 171.043,135.404 177.800 C 133.080 184.599,131.673 186.248,126.293 188.469 C 122.375 190.086,121.600 190.978,121.600 193.867 C 121.600 201.521,114.958 209.964,108.591 210.403 C 106.480 210.548,106.210 210.435,103.099 208.100 C 101.415 206.835,99.578 205.477,99.019 205.082 C 97.089 203.720,96.632 202.211,97.214 199.126 C 98.043 194.734,95.436 193.267,91.661 196.001 C 86.504 199.738,85.725 204.224,88.362 215.000 C 89.062 217.860,90.179 222.411,90.843 225.114 C 91.985 229.757,92.036 230.307,91.774 235.118 C 91.509 240.008,91.539 240.311,92.549 242.835 C 94.256 247.103,93.761 250.667,90.999 254.000 C 90.726 254.330,89.403 256.760,88.061 259.400 C 81.439 272.422,77.848 271.172,73.652 254.386 C 72.442 249.546,71.446 247.288,67.493 240.424 C 66.170 238.127,64.023 233.987,62.721 231.224 C 61.419 228.461,59.113 224.130,57.596 221.600 C 55.631 218.324,54.325 215.503,53.058 211.800 C 52.079 208.940,50.425 204.620,49.384 202.200 C 47.072 196.830,46.995 196.578,45.821 190.600 C 45.302 187.960,44.222 183.778,43.421 181.306 C 40.741 173.039,40.194 166.400,41.230 154.669 C 42.369 141.762,44.310 139.163,55.000 136.234 C 57.200 135.632,61.880 134.258,65.400 133.181 C 73.113 130.822,74.131 130.592,80.240 129.836 C 86.363 129.078,87.807 128.743,94.159 126.610 C 98.956 124.999,101.030 124.566,110.600 123.180 C 112.360 122.925,115.960 122.033,118.600 121.197 C 123.904 119.518,125.156 119.256,134.951 117.772 C 138.665 117.210,143.795 116.129,146.351 115.371 C 148.908 114.613,153.970 113.358,157.600 112.581 C 161.230 111.805,167.080 110.364,170.600 109.380 C 180.547 106.600,185.004 106.274,188.711 108.058 M263.338 175.611 C 268.217 176.825,269.931 177.985,275.342 183.739 C 278.014 186.581,283.620 192.443,287.800 196.766 C 295.203 204.422,312.181 222.336,317.000 227.575 C 318.320 229.011,321.657 232.528,324.416 235.392 C 327.176 238.257,331.316 242.581,333.616 245.002 C 344.227 256.165,346.134 258.098,350.978 262.600 C 371.014 281.221,373.521 283.880,375.196 288.294 C 377.402 294.106,370.405 299.093,334.600 317.224 C 321.621 323.797,298.404 335.917,295.649 337.558 C 290.075 340.878,266.966 351.460,258.000 354.798 C 256.350 355.412,252.750 356.896,250.000 358.096 C 247.250 359.295,243.470 360.779,241.600 361.394 C 239.730 362.009,236.130 363.318,233.600 364.302 C 226.497 367.066,212.547 371.849,204.800 374.176 C 195.945 376.837,185.276 380.219,176.800 383.052 C 166.620 386.456,163.366 387.342,151.974 389.813 C 133.481 393.825,130.781 393.238,127.993 384.600 C 127.709 383.720,126.682 381.290,125.712 379.200 C 124.741 377.110,123.350 373.690,122.620 371.600 C 121.890 369.510,120.481 365.997,119.490 363.794 C 117.198 358.701,116.585 356.608,115.981 351.815 C 114.998 344.003,115.867 341.509,120.090 340.021 C 121.470 339.534,123.230 338.860,124.000 338.524 C 126.463 337.446,129.562 337.416,134.414 338.421 C 141.744 339.939,143.112 339.401,150.555 332.077 C 155.433 327.277,156.116 326.834,160.149 325.842 C 167.610 324.008,169.462 321.088,166.006 316.607 C 164.268 314.356,164.248 314.292,163.912 310.067 C 163.725 307.720,163.399 304.799,163.186 303.576 C 162.071 297.155,163.078 296.027,172.121 293.568 C 179.503 291.560,181.870 289.971,189.510 281.896 C 195.411 275.659,194.820 273.389,187.749 275.136 C 185.920 275.588,182.337 276.022,179.200 276.171 C 176.230 276.312,172.990 276.593,172.000 276.796 C 158.353 279.594,161.085 271.724,177.823 260.021 C 181.110 257.722,185.510 254.959,187.600 253.881 C 194.755 250.188,198.045 245.422,196.033 241.662 C 195.019 239.768,195.491 237.065,197.100 235.548 C 201.882 231.037,203.318 231.211,204.936 236.496 C 205.826 239.404,206.448 239.746,210.418 239.516 C 218.565 239.045,221.134 235.353,217.501 229.335 C 212.063 220.327,213.417 217.418,222.400 218.808 C 228.287 219.720,229.261 220.639,229.380 225.400 C 229.488 229.722,231.086 231.349,233.421 229.512 C 235.415 227.943,235.715 226.732,235.418 221.434 C 235.200 217.543,235.269 216.259,235.773 214.850 C 236.179 213.717,236.400 211.729,236.400 209.216 L 236.400 205.333 237.805 203.929 C 240.340 201.393,242.818 201.159,246.400 203.117 C 250.685 205.459,254.452 203.878,253.761 200.026 C 253.581 199.022,253.426 195.860,253.416 193.000 C 253.396 187.119,252.725 185.258,249.824 183.046 C 245.985 180.117,245.339 178.606,246.900 176.203 C 248.732 173.383,253.665 173.205,263.338 175.611 M213.074 266.180 C 210.081 267.247,209.263 268.699,211.011 269.844 C 213.085 271.203,218.400 269.432,218.400 267.381 C 218.400 265.654,216.041 265.121,213.074 266.180 "
              stroke="none" fill="#211a12" fill-rule="evenodd"></path>
    </g>
</svg>